<svg width="512" height="512" viewBox="0 0 512 512" xmlns="http://www.w3.org/2000/svg">
  <!-- Sharpn App Icon — 512x512 -->
  <rect width="512" height="512" rx="96" fill="#1A5FB4"/>
  
  <g transform="translate(155, 80) scale(1.3)">
    <!-- Left hemisphere -->
    <path d="M105,15 C85,12 65,18 50,30 C35,42 25,60 22,80 C19,100 22,120 30,138 C35,148 42,158 50,165 C58,172 68,178 80,180 L95,182" fill="none" stroke="#fff" stroke-width="3.5" stroke-linejoin="round"/>
    <!-- Right hemisphere -->
    <path d="M105,15 C125,12 145,18 160,30 C175,42 185,60 188,80 C191,100 188,120 180,138 C175,148 168,158 160,165 C152,172 142,178 130,180 L115,182" fill="none" stroke="#fff" stroke-width="3.5" stroke-linejoin="round"/>
    <!-- Cerebellum -->
    <path d="M50,165 C45,170 42,178 48,185 C54,192 65,194 78,192 L80,180" fill="none" stroke="#fff" stroke-width="2.8" stroke-linejoin="round" opacity="0.8"/>
    <path d="M160,165 C165,170 168,178 162,185 C156,192 145,194 132,192 L130,180" fill="none" stroke="#fff" stroke-width="2.8" stroke-linejoin="round" opacity="0.8"/>
    <!-- Brain stem -->
    <path d="M95,182 C93,192 92,200 95,210 C98,200 97,192 115,182" fill="#fff" opacity="0.3" stroke="#fff" stroke-width="2.5" stroke-linejoin="round"/>
    <!-- Central fissure -->
    <path d="M105,18 C104,40 103,65 104,90 C105,115 104,140 105,170" fill="none" stroke="#fff" stroke-width="2.5" opacity="0.5"/>
    <!-- Left sulci -->
    <path d="M30,72 C42,68 58,74 72,65 C82,58 90,62 100,58" fill="none" stroke="#fff" stroke-width="2" stroke-linecap="round" opacity="0.5"/>
    <path d="M42,38 C52,42 62,36 72,40 C80,43 88,38 98,35" fill="none" stroke="#fff" stroke-width="1.8" stroke-linecap="round" opacity="0.4"/>
    <path d="M28,95 C40,100 55,92 68,98 C78,102 88,95 100,92" fill="none" stroke="#fff" stroke-width="2" stroke-linecap="round" opacity="0.45"/>
    <path d="M32,118 C45,122 58,114 70,120 C82,126 92,118 100,115" fill="none" stroke="#fff" stroke-width="1.8" stroke-linecap="round" opacity="0.4"/>
    <path d="M38,140 C50,145 62,138 75,142 C85,145 92,140 100,138" fill="none" stroke="#fff" stroke-width="1.6" stroke-linecap="round" opacity="0.35"/>
    <!-- Right sulci -->
    <path d="M180,72 C168,68 152,74 138,65 C128,58 120,62 110,58" fill="none" stroke="#fff" stroke-width="2" stroke-linecap="round" opacity="0.5"/>
    <path d="M168,38 C158,42 148,36 138,40 C130,43 122,38 112,35" fill="none" stroke="#fff" stroke-width="1.8" stroke-linecap="round" opacity="0.4"/>
    <path d="M182,95 C170,100 155,92 142,98 C132,102 122,95 110,92" fill="none" stroke="#fff" stroke-width="2" stroke-linecap="round" opacity="0.45"/>
    <path d="M178,118 C165,122 152,114 140,120 C128,126 118,118 110,115" fill="none" stroke="#fff" stroke-width="1.8" stroke-linecap="round" opacity="0.4"/>
    <path d="M172,140 C160,145 148,138 135,142 C125,145 118,140 110,138" fill="none" stroke="#fff" stroke-width="1.6" stroke-linecap="round" opacity="0.35"/>
    <!-- Sharp point -->
    <path d="M92,210 L105,250 L118,210" fill="#fff" opacity="0.9" stroke="#fff" stroke-width="2" stroke-linejoin="round"/>
    <!-- Spark -->
    <line x1="105" y1="250" x2="105" y2="264" stroke="#fff" stroke-width="2" opacity="0.5"/>
    <line x1="97" y1="257" x2="113" y2="257" stroke="#fff" stroke-width="2" opacity="0.5"/>
  </g>
</svg>
